<?xml version="1.0" encoding="UTF-8" standalone="no"?>
<svg
   xmlns:dc="http://purl.org/dc/elements/1.1/"
   xmlns:cc="http://creativecommons.org/ns#"
   xmlns:rdf="http://www.w3.org/1999/02/22-rdf-syntax-ns#"
   xmlns:svg="http://www.w3.org/2000/svg"
   xmlns="http://www.w3.org/2000/svg"
   xmlns:sodipodi="http://sodipodi.sourceforge.net/DTD/sodipodi-0.dtd"
   xmlns:inkscape="http://www.inkscape.org/namespaces/inkscape"
   viewBox="0 0 383.95559 149.07454"
   height="149.07454"
   width="383.9556"
   xml:space="preserve"
   id="svg2"
   version="1.1"
   inkscape:version="0.91 r13725"
   sodipodi:docname="dbt-logo.svg"><sodipodi:namedview
     pagecolor="#ffffff"
     bordercolor="#666666"
     borderopacity="1"
     objecttolerance="10"
     gridtolerance="10"
     guidetolerance="10"
     inkscape:pageopacity="0"
     inkscape:pageshadow="2"
     inkscape:window-width="1216"
     inkscape:window-height="819"
     id="namedview3520"
     showgrid="false"
     inkscape:zoom="1.007929"
     inkscape:cx="310.55866"
     inkscape:cy="229.70189"
     inkscape:window-x="0"
     inkscape:window-y="0"
     inkscape:window-maximized="0"
     inkscape:current-layer="g12"
     fit-margin-top="0"
     fit-margin-left="0"
     fit-margin-right="0"
     fit-margin-bottom="0" /><metadata
     id="metadata8"><rdf:RDF><cc:Work
         rdf:about=""><dc:format>image/svg+xml</dc:format><dc:type
           rdf:resource="http://purl.org/dc/dcmitype/StillImage" /><dc:title></dc:title></cc:Work></rdf:RDF></metadata><defs
     id="defs6"><clipPath
       id="clipPath18"
       clipPathUnits="userSpaceOnUse"><path
         id="path16"
         d="m 0,595.28 841.89,0 L 841.89,0 0,0 Z"
         inkscape:connector-curvature="0" /></clipPath></defs><g
     transform="matrix(1.3333333,0,0,-1.3333333,-0.50185332,792.44998)"
     id="g10"><g
       id="g12"><g
         clip-path="url(#clipPath18)"
         id="dbt"
         transform="translate(-276.06111,228.4387)"
         inkscape:label="#dbt"><g
           transform="translate(283.6035,260.4043)"
           id="g20"><path
             id="spiracle"
             style="fill:#d9dadb;fill-opacity:1;fill-rule:evenodd;stroke:none"
             d="m 0,0 c 0,0 -2.368,-1.63 -3.499,3.271 -1.984,8.597 10.555,46.111 67.214,74.11 46.941,23.196 80.099,28.086 88.629,14.33 C 159.177,80.689 141.613,49.955 112.878,34.39 81.132,17.194 37.92,5.51 28,18.075 c -11.902,15.077 18.079,36.82 33.291,44.536 15.211,7.716 53.88,23.495 61.552,13.198 5.974,-8.021 -16.578,-25.765 -26.279,-31.057 -9.699,-5.291 -37.377,-13.534 -40.785,-8.816 -2.867,3.967 6.173,12.786 16.094,17.856 9.92,5.071 18.298,6.835 20.503,5.071 2.204,-1.765 1.627,-4.295 -2.109,-7.372 -3.658,-3.013 -9.796,-6.739 -9.796,-6.739 0,0 5.005,1.848 10.285,4.3 6.828,3.169 13.525,9.811 10.219,14 -2.541,3.219 -17.638,0.22 -31.308,-6.835 C 55.549,48.93 44.362,37.838 47.841,30.644 c 3.308,-6.833 31.581,-5.783 52.692,7.275 20.972,12.971 34.98,26.591 31.775,39.206 C 129.287,89.014 91.697,82.27 58.864,64.154 32.777,49.759 11.92,25.722 23.15,11.686 35.496,-3.748 79.368,4.188 117.95,25.352 156.38,46.434 171.552,79.549 160.307,95.866 150.174,110.57 112.028,104.189 62.172,80.247 17.639,58.863 -9.23,17.158 -4.6,1.725 c 1.415,-4.721 1.763,-3.088 1.763,-3.088 z"
             inkscape:connector-curvature="0" /></g><g
           transform="translate(329.5156,338.0215)"
           id="g24" /><g
           transform="translate(369.6021,352.6528)"
           id="g28" /><g
           transform="translate(300.0264,313.4209)"
           id="g32" /><g
           transform="translate(403.8813,361.3198)"
           id="g36" /><g
           transform="translate(276.4375,258.6689)"
           id="g40" /><g
           transform="translate(291.0215,239.4199)"
           id="g44" /><g
           transform="translate(309.4912,234.3662)"
           id="g50" /><g
           transform="translate(328.2915,242.2764)"
           id="g56" /><g
           transform="translate(338.125,234.0039)"
           id="g60" /><g
           transform="translate(356.1152,235.0264)"
           id="g66" /><g
           transform="translate(371.3359,232.3633)"
           id="g70" /><g
           transform="translate(390.2725,234.2588)"
           id="g76" /><g
           transform="translate(413.3384,234.2012)"
           id="g84" /><g
           transform="translate(426.2412,242.2764)"
           id="g88" /><g
           transform="translate(429.8291,242.2764)"
           id="g92" /><g
           transform="translate(448.1855,235.0264)"
           id="g96" /><g
           transform="translate(453.3467,242.2764)"
           id="g100" /><g
           transform="translate(470.3311,242.2764)"
           id="g104" /><g
           transform="translate(484.0664,242.2764)"
           id="g108" /><g
           transform="translate(507.6172,238.8008)"
           id="g114" /><g
           transform="translate(521.2813,238.8008)"
           id="g120" /><g
           transform="translate(536.1094,234.3662)"
           id="g124" /><g
           transform="translate(551.3955,235.0264)"
           id="g128" /><g
           transform="translate(556.5566,238.8008)"
           id="g132" /><g
           transform="translate(352.6157,286.873)"
           id="g136"><path
             id="d"
             style="fill:#1a171b;fill-opacity:1;fill-rule:evenodd;stroke:none"
             d="m 0,0 c 0.19,6.272 6.735,9.407 19.634,9.407 l 31.586,0 0,11.826 24.471,0 0,-51.198 -56.057,0 c -12.993,0 -19.538,3.046 -19.634,9.137 z m 31.017,-2.218 c -4.268,0 -6.403,-0.983 -6.403,-2.954 l 0,-10.212 c 0,-1.973 2.041,-2.959 6.119,-2.959 l 20.344,0 0,16.125 z"
             inkscape:connector-curvature="0"
             inkscape:label="#dbt_d" /></g><g
           transform="translate(461.5791,284.6553)"
           id="g140"><path
             id="b"
             style="fill:#1a171b;fill-opacity:1;fill-rule:evenodd;stroke:none"
             d="m 0,0 0,-16.125 20.343,0 c 4.081,0 6.121,0.985 6.121,2.959 l 0,10.212 C 26.464,-0.983 24.327,0 20.06,0 Z m 51.076,2.218 0,-20.828 c -0.095,-6.091 -6.639,-9.137 -19.636,-9.137 l -56.055,0 0,51.198 24.473,0 0,-11.826 31.582,0 c 12.902,0 19.448,-3.135 19.636,-9.407"
             inkscape:connector-curvature="0"
             inkscape:label="#dbt_b" /></g><g
           transform="translate(541.6602,256.9082)"
           id="g144"><g
             id="brand_color"><path
               inkscape:connector-curvature="0"
               d="m 0,0 c 0,6.069 4.921,10.988 10.989,10.988 6.07,0 10.988,-4.919 10.988,-10.988 0,-6.068 -4.918,-10.987 -10.988,-10.987 C 4.921,-10.987 0,-6.068 0,0"
               style="fill:#008955;fill-opacity:1;fill-rule:nonzero;stroke:none"
               id="dot3"
               transform="translate(-212.1446,81.1133)" /><path
               inkscape:connector-curvature="0"
               d="m 0,0 c 0,3.793 3.075,6.869 6.868,6.869 3.794,0 6.868,-3.076 6.868,-6.869 0,-3.794 -3.074,-6.867 -6.868,-6.867 C 3.075,-6.867 0,-3.794 0,0"
               style="fill:#008955;fill-opacity:1;fill-rule:nonzero;stroke:none"
               id="dot4"
               transform="translate(-172.0581,95.7446)" /><path
               inkscape:connector-curvature="0"
               d="m 0,0 c 0,3.794 3.076,6.869 6.869,6.869 3.794,0 6.868,-3.075 6.868,-6.869 0,-3.794 -3.074,-6.869 -6.868,-6.869 C 3.076,-6.869 0,-3.794 0,0"
               style="fill:#008955;fill-opacity:1;fill-rule:nonzero;stroke:none"
               id="dot2"
               transform="translate(-241.6338,56.5127)" /><path
               inkscape:connector-curvature="0"
               d="M 0,0 C 0,2.528 2.051,4.579 4.579,4.579 7.109,4.579 9.157,2.528 9.157,0 9.157,-2.529 7.109,-4.579 4.579,-4.579 2.051,-4.579 0,-2.529 0,0"
               style="fill:#008955;fill-opacity:1;fill-rule:nonzero;stroke:none"
               id="dot5"
               transform="translate(-137.7789,104.4116)" /><path
               inkscape:connector-curvature="0"
               d="M 0,0 C 0,2.529 2.05,4.579 4.579,4.579 7.108,4.579 9.158,2.529 9.158,0 9.158,-2.526 7.108,-4.576 4.579,-4.576 2.05,-4.576 0,-2.526 0,0"
               style="fill:#008955;fill-opacity:1;fill-rule:nonzero;stroke:none"
               id="dot1"
               transform="translate(-265.2227,1.7606972)" /><path
               inkscape:label="#dbt_t"
               inkscape:connector-curvature="0"
               d="m 0,0 c -13.564,0 -20.345,2.888 -20.345,8.668 l 0,42.329 24.613,0 0,-11.625 18.476,0 0,-11.625 -18.476,0 0,-13.84 c 0,-1.52 1.234,-2.285 3.698,-2.285 l 14.634,0 L 22.6,0 Z"
               style="fill:#008955;fill-opacity:1;fill-rule:nonzero;stroke:none"
               id="path146" /></g></g></g></g></g></svg>