<?xml version="1.0" encoding="UTF-8" standalone="no"?>
<!-- Generator: Adobe Illustrator 16.0.0, SVG Export Plug-In . SVG Version: 6.00 Build 0)  -->

<svg
   xmlns:dc="http://purl.org/dc/elements/1.1/"
   xmlns:cc="http://creativecommons.org/ns#"
   xmlns:rdf="http://www.w3.org/1999/02/22-rdf-syntax-ns#"
   xmlns:svg="http://www.w3.org/2000/svg"
   xmlns="http://www.w3.org/2000/svg"
   xmlns:sodipodi="http://sodipodi.sourceforge.net/DTD/sodipodi-0.dtd"
   xmlns:inkscape="http://www.inkscape.org/namespaces/inkscape"
   version="1.1"
   id="Ebene_1"
   x="0px"
   y="0px"
   width="912.39398"
   height="253.92101"
   viewBox="0 0 912.39398 253.921"
   enable-background="new 0 0 1023.307 1009.275"
   xml:space="preserve"
   inkscape:version="0.48.5 r10040"
   sodipodi:docname="Urmel_Logo_grau-1.svg"><metadata
     id="metadata27"><rdf:RDF><cc:Work
         rdf:about=""><dc:format>image/svg+xml</dc:format><dc:type
           rdf:resource="http://purl.org/dc/dcmitype/StillImage" /><dc:title></dc:title></cc:Work></rdf:RDF></metadata><defs
     id="defs25" /><sodipodi:namedview
     pagecolor="#ffffff"
     bordercolor="#666666"
     borderopacity="1"
     objecttolerance="10"
     gridtolerance="10"
     guidetolerance="10"
     inkscape:pageopacity="0"
     inkscape:pageshadow="2"
     inkscape:window-width="1920"
     inkscape:window-height="1144"
     id="namedview23"
     showgrid="false"
     fit-margin-left="10"
     fit-margin-bottom="10"
     fit-margin-top="10"
     fit-margin-right="10"
     inkscape:zoom="0.23383121"
     inkscape:cx="441.3545"
     inkscape:cy="110.19249"
     inkscape:window-x="0"
     inkscape:window-y="27"
     inkscape:window-maximized="1"
     inkscape:current-layer="Ebene_1" /><g
     id="g3"
     transform="translate(-70.299,-360.909)"><polygon
       points="744.181,431.363 744.181,601.876 829.011,601.876 829.011,583.331 763.563,583.331 763.563,431.363 "
       id="polygon5"
       style="fill:#e1e1e1" /></g><g
     id="g7"
     transform="translate(-70.299,-360.909)"><g
       id="g9"><path
         d="m 247.01,520.484 c 0,67.879 -49.748,84.346 -83.359,84.346 -33.604,0 -83.352,-16.467 -83.352,-84.346 V 370.909 h 22.732 v 149.575 c 0,37.562 20.759,64.579 60.619,64.579 39.877,0 60.625,-27.017 60.625,-64.579 V 370.909 h 22.734 v 149.575 z"
         id="path11"
         inkscape:connector-curvature="0"
         style="fill:#e1e1e1" /></g></g><path
     d="m 229.095,109.506 c 0,-18.455003 -0.069,-37.565003 -0.069,-37.565003 h 20.701 V 101.363 h 0.658 c 7.576,-18.779003 20.545,-30.121003 41.972,-30.121003 4.939,0 10.868,0.6 14.499,1.588 v 18.881 c -4.289,-1.316 -9.888,-1.976 -15.158,-1.976 -32.952,0 -41.845,36.896003 -41.845,67.214003 v 83.023 H 229.095 V 109.506 z"
     id="path13"
     inkscape:connector-curvature="0"
     style="fill:#e1e1e1" /><path
     d="m 338.248,70.623997 h 31.706 L 429,216.829 488.285,70.623997 h 29.766 V 240.095 H 498.43 V 93.106997 h -0.48 L 439.141,240.095 H 419.095 L 358.341,93.106997 h -0.48 V 240.095 H 338.248 V 70.623997 z"
     id="path15"
     inkscape:connector-curvature="0"
     style="fill:#e1e1e1" /><path
     d="m 556.937,70.623997 h 83.032 v 17.434 H 576.551 V 142.783 h 60.016 v 17.434 h -60.016 v 62.443 h 66.327 v 17.436 H 556.937 V 70.623997 z"
     id="path17"
     inkscape:connector-curvature="0"
     style="fill:#e1e1e1" /><g
     id="g19"
     transform="translate(-70.299,-360.909)"><polygon
       points="972.693,373.354 744.181,373.354 744.181,403.131 763.563,403.131 763.563,391.908 953.321,391.908 953.321,583.331 857.244,583.331 857.244,601.876 972.693,601.876 "
       id="polygon21"
       style="fill:#e1e1e1" /></g></svg>